<svg width="50" height="54" viewBox="0 0 50 54" fill="none" xmlns="http://www.w3.org/2000/svg">
<path d="M24.5508 35.0727C27.4967 35.0727 29.8849 32.6498 29.8849 29.661C29.8849 26.6723 27.4967 24.2494 24.5508 24.2494C21.6049 24.2494 19.2168 26.6723 19.2168 29.661C19.2168 32.6498 21.6049 35.0727 24.5508 35.0727Z" fill="#830000"/>
<path d="M22.7189 8.01818C22.7189 13.835 22.7189 19.6519 22.7189 25.4689C22.7189 27.5793 25.9447 27.5793 25.9447 25.4689C25.9447 19.6521 25.9447 13.8351 25.9447 8.01818C25.9447 5.90776 22.7189 5.90776 22.7189 8.01818Z" fill="#830000"/>
<path d="M26.1614 11.7491C26.8925 11.7491 27.6238 11.7491 28.3551 11.7491C29.2343 11.7491 29.968 11.0047 29.968 10.1127C29.968 9.22075 29.2343 8.47636 28.3551 8.47636C27.6239 8.47636 26.8927 8.47636 26.1614 8.47636C25.2822 8.47636 24.5485 9.22075 24.5485 10.1127C24.5485 11.0047 25.2822 11.7491 26.1614 11.7491Z" fill="#830000"/>
<path d="M26.3226 16.9856C27.0537 16.9856 27.785 16.9856 28.5163 16.9856C29.3955 16.9856 30.1292 16.2412 30.1292 15.3493C30.1292 14.4573 29.3955 13.7129 28.5163 13.7129C27.7852 13.7129 27.0539 13.7129 26.3226 13.7129C25.4434 13.7129 24.7097 14.4573 24.7097 15.3493C24.7097 16.2412 25.4434 16.9856 26.3226 16.9856Z" fill="#830000"/>
<path d="M26.3226 22.5493C27.0537 22.5493 27.785 22.5493 28.5163 22.5493C29.3955 22.5493 30.1292 21.8049 30.1292 20.9129C30.1292 20.0209 29.3955 19.2766 28.5163 19.2766C27.7852 19.2766 27.0539 19.2766 26.3226 19.2766C25.4434 19.2766 24.7097 20.0209 24.7097 20.9129C24.7097 21.8049 25.4434 22.5493 26.3226 22.5493Z" fill="#830000"/>
<path d="M18.1066 31.5486C16.3824 30.5166 14.1227 30.745 12.6431 32.2461C12.0095 32.8888 10.9785 32.8888 10.3448 32.2461C9.7837 31.6768 8.87419 31.6768 8.31306 32.2461C7.75209 32.8154 7.75209 33.7381 8.31306 34.3074C10.0669 36.0868 12.9206 36.0868 14.6747 34.3074C15.3082 33.6646 16.339 33.6646 16.9729 34.3074C18.2216 35.5743 20.0263 35.9333 21.5961 35.3952C21.4756 35.3226 21.3572 35.2431 21.2405 35.1593C19.936 34.2573 18.7997 32.9841 18.1066 31.5486Z" fill="#830000"/>
<path d="M40.654 32.2444C40.0929 31.6751 39.1832 31.6751 38.6221 32.2444C38.3153 32.5558 37.9073 32.7273 37.4732 32.7273C37.0392 32.7273 36.6308 32.5556 36.324 32.2444C35.4743 31.3823 34.3448 30.9078 33.1432 30.9076C32.2139 30.9076 31.3282 31.1927 30.5811 31.7202C29.915 33.2296 28.8742 34.612 27.4724 35.4286C29.0179 35.9169 30.7724 35.5452 31.9943 34.3057C32.3011 33.9943 32.7092 33.8228 33.1432 33.8228C33.5773 33.8228 33.9856 33.9945 34.2924 34.3057C35.1421 35.1677 36.2716 35.6424 37.4732 35.6424C38.675 35.6424 39.8043 35.1677 40.654 34.3057C41.215 33.7364 41.215 32.8135 40.654 32.2444Z" fill="#830000"/>
<path d="M38.6221 39.6779C38.3153 39.9893 37.9072 40.1608 37.4732 40.1608C37.0392 40.1608 36.6308 39.9891 36.324 39.678C35.4743 38.816 34.3448 38.3413 33.1432 38.3411C31.9418 38.3411 30.8121 38.816 29.9624 39.6779C29.3289 40.3208 28.2979 40.3206 27.6643 39.678C26.8147 38.816 25.685 38.3413 24.4835 38.3411C24.4834 38.3411 24.4835 38.3411 24.4835 38.3411C23.2821 38.3411 22.1524 38.816 21.3027 39.6779C20.6692 40.3208 19.6381 40.3208 19.0047 39.6779C17.2508 37.8985 14.3969 37.8985 12.6431 39.6779C12.0095 40.3208 10.9785 40.3208 10.3448 39.6779C9.7837 39.1086 8.87419 39.1086 8.31306 39.6779C7.75209 40.2472 7.75209 41.1699 8.31306 41.7392C10.0669 43.5186 12.9206 43.5186 14.6747 41.7392C15.3082 41.0964 16.339 41.0964 16.9729 41.7392C18.7268 43.5186 21.5805 43.5186 23.3343 41.7392C23.6413 41.428 24.0493 41.2563 24.4835 41.2563C24.9177 41.2563 25.3258 41.428 25.6327 41.7392C27.3866 43.5186 30.2403 43.5186 31.9943 41.7392C32.3011 41.428 32.7092 41.2563 33.1432 41.2563C33.5773 41.2563 33.9856 41.428 34.2924 41.7392C35.1421 42.6012 36.2716 43.0759 37.4732 43.0759C38.675 43.0759 39.8043 42.6012 40.654 41.7392C41.2152 41.1699 41.2152 40.2472 40.654 39.6779C40.0926 39.1086 39.1832 39.1086 38.6221 39.6779Z" fill="#830000"/>
</svg>
