<svg width="54" height="54" viewBox="0 0 54 54" fill="none" xmlns="http://www.w3.org/2000/svg">
<path d="M43.2348 29.1637C43.039 27.3721 43.1512 25.5374 42.6793 23.7831C42.1829 21.9375 40.7945 20.6547 39.1261 19.8314C37.98 19.2658 36.9715 20.9816 38.122 21.5494C39.6356 22.2962 40.5649 23.2619 40.9073 24.9315C41.2373 26.5429 41.1128 28.2391 41.3324 29.8693C41.5797 31.707 41.9884 33.5182 42.1087 35.372C42.2078 36.8981 42.1414 38.9095 40.6954 39.8248C40.1658 40.1603 39.4625 40.2414 38.9124 39.9283C38.2782 39.567 38.4549 38.4575 38.503 37.8805C38.6608 35.9885 39.0708 34.2991 38.7352 32.392C38.4845 30.9667 37.6949 29.695 36.4545 28.939C35.1661 28.154 33.5697 28.1653 32.1099 28.3338V17.2847C32.1099 16.7014 31.584 16.2285 30.9355 16.2285H14.9831C14.3345 16.2285 13.8087 16.7014 13.8087 17.2847V38.4943C13.8087 39.0774 14.3345 39.5505 14.9831 39.5505H30.9359C31.5844 39.5505 32.1103 39.0774 32.1103 38.4943V30.3136C32.1475 30.3122 32.1853 30.3092 32.2238 30.3038C33.7311 30.1005 35.4999 30.1508 36.3661 31.5912C37.3374 33.2057 36.8518 35.3217 36.6138 37.0557C36.3699 38.8305 36.348 40.9773 38.2655 41.8262C39.9036 42.5516 41.7622 41.8342 42.853 40.519C45.3961 37.4522 43.6161 32.6482 43.2348 29.1637ZM29.0029 24.7886H16.8413C16.5691 24.8399 16.2554 24.6722 16.2554 24.2853V19.6472C16.2554 19.4825 16.3125 19.3578 16.3988 19.2724C16.4776 19.1789 16.5926 19.117 16.7448 19.117H28.0975C28.107 19.117 28.1154 19.1192 28.1247 19.1196C28.1321 19.1192 28.1391 19.117 28.1464 19.117H28.9784C28.9876 19.117 28.9963 19.1196 29.0055 19.1202C29.0284 19.121 29.0506 19.1234 29.0723 19.1276C29.0749 19.1282 29.0775 19.1288 29.0801 19.1296C29.0896 19.1316 29.0992 19.1333 29.1085 19.1361C29.1237 19.1407 29.136 19.1479 29.1501 19.1534C29.1585 19.157 29.1666 19.16 29.1748 19.1638C29.213 19.1817 29.2456 19.2048 29.2757 19.2304C29.3887 19.3142 29.4678 19.4531 29.4678 19.6474V24.1635C29.5106 24.4558 29.3566 24.7886 29.0029 24.7886Z" fill="#830000"/>
<path d="M32.1103 32.4057H13.8087V43.1713H32.1103V32.4057Z" fill="#830000"/>
<path d="M35.2421 41.0183H10.9706V43.1713H35.2421V41.0183Z" fill="#830000"/>
<path d="M41.926 24.57C41.36 24.939 39.3116 24.9201 38.7166 24.2715C38.3044 23.8223 38.7128 22.4544 39.0192 22.0061" stroke="#830000" stroke-miterlimit="10"/>
</svg>
