<svg width="36" height="35" viewBox="0 0 36 35" fill="none" xmlns="http://www.w3.org/2000/svg">
<g opacity="0.8">
<path opacity="0.8" d="M18.5923 26.1484L21.3802 29.0404L34.1912 16.6307L31.4032 13.7387L18.5923 26.1484Z" fill="#830000"/>
<path opacity="0.8" d="M28.5429 16.5346L31.428 13.7399L21.4933 3.43439L18.6083 6.2291L28.5429 16.5346Z" fill="#830000"/>
</g>
<g opacity="0.6">
<path opacity="0.6" d="M10.7925 26.1479L13.5804 29.0399L26.3914 16.6302L23.6034 13.7382L10.7925 26.1479Z" fill="#830000"/>
<path opacity="0.6" d="M20.7359 16.5348L23.621 13.7401L13.7037 3.45267L10.8187 6.24737L20.7359 16.5348Z" fill="#830000"/>
</g>
<g opacity="0.4">
<path opacity="0.4" d="M2.98547 26.1476L5.77344 29.0396L18.5844 16.6299L15.7964 13.7379L2.98547 26.1476Z" fill="#830000"/>
<path opacity="0.4" d="M12.9328 16.5217L15.8179 13.727L5.8713 3.40916L2.98623 6.20387L12.9328 16.5217Z" fill="#830000"/>
</g>
</svg>
