<svg width="33" height="33" viewBox="0 0 33 33" fill="none" xmlns="http://www.w3.org/2000/svg">
<g clip-path="url(#clip0)">
<path fill-rule="evenodd" clip-rule="evenodd" d="M16.5 11.9158C13.9727 11.9158 11.9171 13.9727 11.9171 16.5C11.9171 19.0273 13.9727 21.0829 16.5 21.0829C19.0273 21.0829 21.0829 19.0273 21.0829 16.5C21.0829 13.9727 19.0273 11.9158 16.5 11.9158ZM16.5 22.4579C13.2137 22.4579 10.5421 19.7863 10.5421 16.5C10.5421 13.2137 13.2137 10.5407 16.5 10.5407C19.7863 10.5407 22.4579 13.2137 22.4579 16.5C22.4579 19.7863 19.7863 22.4579 16.5 22.4579ZM14.8596 31.625H18.1404C18.6615 30.107 19.0589 28.2549 21.0375 27.4313C23.0945 26.5829 24.7032 27.7008 26.0356 28.3552L28.3539 26.0343C27.6554 24.5946 26.6131 23.0106 27.434 21.0279C28.2136 19.1455 29.8251 18.7413 31.625 18.1418V14.8582C29.9269 14.2794 28.2274 13.8848 27.4354 11.9735C26.6489 10.076 27.5138 8.68038 28.3552 6.96438L26.0356 4.64612C24.4998 5.39825 22.9818 6.3745 21.0279 5.56462C19.1386 4.7795 18.7509 3.18037 18.1404 1.375H14.8596C14.2766 3.06763 13.8916 4.7685 11.9735 5.56325C11.4716 5.77362 10.9862 5.874 10.4926 5.874C9.3335 5.874 8.3765 5.335 6.96438 4.64612L4.64475 6.96438C5.434 8.58 6.36487 10.0402 5.56462 11.9735C4.7795 13.8641 3.18037 14.2477 1.375 14.8582V18.1418C3.06075 18.7165 4.7685 19.1111 5.56462 21.0265C6.3635 22.9556 5.4615 24.3705 4.64475 26.0356L6.96438 28.3552C8.95813 27.3584 10.2025 26.6997 11.9721 27.4354C13.8669 28.2219 14.2478 29.8251 14.8596 31.625ZM19.1139 33H13.8847C12.9484 30.3627 12.8054 29.2696 11.4469 28.7059C10.065 28.1298 9.06675 28.8874 6.68113 30.0149L2.98375 26.3175C4.18412 23.7916 4.86337 22.9281 4.29413 21.5531C3.72762 20.1905 2.65512 20.0585 0 19.1152V13.8847C2.62075 12.9525 3.729 12.8095 4.29413 11.4469C4.85925 10.0842 4.1965 9.229 2.98375 6.68113L6.68113 2.98513C9.075 4.12362 10.0719 4.862 11.4455 4.2955C12.8095 3.729 12.9332 2.66613 13.8861 0H19.1139C20.0516 2.63725 20.1974 3.73175 21.5531 4.29413C22.9295 4.86613 23.903 4.1305 26.3202 2.98513L30.0149 6.68113C28.8076 9.22075 28.1435 10.087 28.7059 11.4455C29.271 12.8095 30.3449 12.9401 33 13.8847V19.1166C30.3792 20.0475 29.2696 20.1919 28.7045 21.5545C28.1504 22.8951 28.765 23.7009 30.0163 26.3175L26.3202 30.0149C23.9443 28.8874 22.9281 28.1311 21.5683 28.7018C20.2097 29.2655 20.0833 30.2775 19.1139 33Z" fill="black"/>
</g>
<defs>
<clipPath id="clip0">
<rect width="33" height="33" fill="white"/>
</clipPath>
</defs>
</svg>
